<?xml version="1.0" standalone="no"?>
<!DOCTYPE svg PUBLIC "-//W3C//DTD SVG 1.1//EN" "http://www.w3.org/Graphics/SVG/1.1/DTD/svg11.dtd" >
<svg xmlns="http://www.w3.org/2000/svg">
<metadata></metadata>
<defs>
<font id="exo_2light_italic" horiz-adv-x="940" >
<font-face units-per-em="2048" ascent="1638" descent="-410" />
<missing-glyph horiz-adv-x="462" />
<glyph horiz-adv-x="0" />
<glyph unicode="&#xd;" horiz-adv-x="681" />
<glyph unicode=" "  horiz-adv-x="462" />
<glyph unicode="&#x09;" horiz-adv-x="462" />
<glyph unicode="&#xa0;" horiz-adv-x="462" />
<glyph unicode="!" horiz-adv-x="540" d="M125 53l18 117q7 49 54 49h36q55 0 46 -53l-17 -119q-2 -47 -53 -47h-37q-53 0 -47 53zM195 426l34 346l93 651h129l-93 -651l-59 -346h-104z" />
<glyph unicode="&#x22;" horiz-adv-x="696" d="M213 979l53 434h109l-70 -434h-92zM496 979l51 434h110l-69 -434h-92z" />
<glyph unicode="#" horiz-adv-x="1382" d="M78 446l28 89h238l125 399h-238l29 88h236l125 391h104l-123 -391h408l125 391h104l-123 -391h227l-28 -88h-225l-127 -399h227l-31 -89h-223l-141 -446h-105l139 446h-407l-141 -446h-105l139 446h-237zM449 535h409l125 399h-408z" />
<glyph unicode="$" horiz-adv-x="1153" d="M70 8l16 101q256 -12 350 -13l119 563l-135 54q-145 57 -195.5 145t-31.5 238q16 115 55 185.5t107.5 103t141 43t187.5 8.5h39l41 204h72l-43 -206q160 -6 297 -33l-17 -96q-195 10 -305 10l-113 -553l113 -45q158 -61 208 -146.5t28 -242.5q-31 -217 -146 -284 t-375 -67l-51 -243h-72l52 243q-180 4 -342 31zM328 1081q-12 -109 18.5 -160t134.5 -94l107 -41l110 531h-30q-72 0 -107 -2t-83 -13.5t-72.5 -36t-47 -70.5t-30.5 -114zM508 96q186 4 262 50.5t98 195.5q14 115 -16.5 165t-140.5 93l-90 35z" />
<glyph unicode="%" horiz-adv-x="1818" d="M162 1026q31 223 112.5 317.5t255.5 94.5q180 0 242 -99.5t29 -324.5q-31 -223 -115 -317.5t-256 -94.5q-178 0 -238.5 99.5t-29.5 324.5zM262 1014q-25 -180 10 -254t154 -74q133 0 191.5 76t82.5 264q25 184 -8.5 256t-154.5 72q-135 0 -191.5 -75t-83.5 -265zM299 0 l1139 1413h104l-1136 -1413h-107zM1049 408q31 223 112.5 317t255.5 94q182 0 242.5 -99t28.5 -325q-31 -223 -115 -318t-256 -95q-178 0 -238.5 99t-29.5 327zM1149 395q-25 -182 10 -255.5t154 -73.5q133 0 191.5 75.5t82.5 266.5q25 182 -9 254.5t-155 72.5 q-135 0 -191 -74.5t-83 -265.5z" />
<glyph unicode="&#x26;" horiz-adv-x="1570" d="M98 362q27 178 118 269.5t257 97.5l2 8q-139 10 -188 95.5t-25 240.5q37 213 155 286t367 73q182 0 336 -46l-22 -98q-129 31 -312 31q-201 0 -282.5 -52.5t-108.5 -217.5q-27 -154 37 -209.5t248 -55.5h450q12 121 9 283h121q0 -174 -11 -283h254l-16 -104h-250 q-35 -227 -131 -385q-100 -164 -252 -238.5t-365 -79.5q-236 -4 -328.5 83t-62.5 302zM242 371q-29 -162 29.5 -219.5t209.5 -57.5q186 0 310 62.5t206 191.5q86 129 119 332h-448q-211 -2 -303.5 -62.5t-122.5 -246.5z" />
<glyph unicode="'" horiz-adv-x="413" d="M213 979l53 434h109l-70 -434h-92z" />
<glyph unicode="(" horiz-adv-x="727" d="M125 649q55 389 212.5 624.5t440.5 344.5l15 -68q-225 -106 -356.5 -328.5t-182.5 -586.5q-49 -352 16.5 -574.5t259.5 -332.5l-18 -66q-252 111 -347 353.5t-40 633.5z" />
<glyph unicode=")" horiz-adv-x="727" d="M-55 -270q440 215 540 917q101 704 -276 905l18 66q250 -109 347.5 -350.5t39.5 -638.5q-55 -387 -212.5 -621.5t-440.5 -345.5z" />
<glyph unicode="*" horiz-adv-x="919" d="M193 1145l34 80l240 -92l-6 -37l-19 -25zM258 831l238 261l34 321h84l-59 -323l166 -265l-72 -49l-127 256l-200 -254zM594 1096l2 37l260 90l16 -84l-264 -68z" />
<glyph unicode="+" horiz-adv-x="1124" d="M115 561l14 101h389l51 368h105l-53 -368h391l-17 -101h-389l-51 -371h-102l53 371h-391z" />
<glyph unicode="," horiz-adv-x="448" d="M53 -238q45 154 60 240q-43 0 -37 45l18 123q4 29 16.5 39t43.5 10h43q49 0 41 -51l-19 -133q-18 -137 -100 -295z" />
<glyph unicode="-" d="M137 465l15 102h628l-14 -102h-629z" />
<glyph unicode="." horiz-adv-x="446" d="M76 53l16 117q6 49 53 49h48q51 0 45 -53l-17 -119q-6 -47 -53 -47h-45q-57 0 -47 53z" />
<glyph unicode="/" horiz-adv-x="1052" d="M-35 -129l1020 1542h115l-1018 -1542h-117z" />
<glyph unicode="0" horiz-adv-x="1216" d="M156 713q53 387 181 556t382 169q260 0 345 -175.5t29.5 -562.5t-183.5 -556t-380 -169q-260 0 -345 175.5t-29 562.5zM285 700q-45 -330 7 -469t236 -139q193 0 290 143.5t145 477.5q47 330 -6.5 469t-239.5 139q-193 0 -289 -143.5t-143 -477.5z" />
<glyph unicode="1" horiz-adv-x="792" d="M145 1266l390 147h135l-199 -1413h-135l164 1176q12 74 24 112l-374 -119z" />
<glyph unicode="2" horiz-adv-x="1134" d="M31 0l10 86q8 41 27 59l510 500q164 160 243.5 276.5t89.5 225.5q12 109 -50 140.5t-210 31.5q-198 0 -413 -39l-7 104q238 53 424 54q215 0 314.5 -62.5t77.5 -240.5q-16 -131 -90 -247t-242 -280l-496 -485q74 4 227 4h517l-19 -127h-913z" />
<glyph unicode="3" horiz-adv-x="1122" d="M33 10l20 103q236 -27 377 -19q352 25 399 318q43 279 -262 280l-266 4l14 101l260 2q88 2 149.5 27.5t94.5 71.5t48.5 91t21.5 103q16 135 -40 181t-245 46q-176 -1 -352 -19l-8 103q221 35 385 35q236 0 323.5 -77t67.5 -255q-16 -135 -78.5 -236.5t-181.5 -119.5 l-4 -9q127 -18 177 -113.5t28 -240.5q-27 -176 -150 -288.5t-371 -123.5q-195 -10 -407 35z" />
<glyph unicode="4" horiz-adv-x="1234" d="M87 434.5q-36 67.5 11 140.5l535 838h137l-537 -850q-25 -39 -13.5 -62.5t48.5 -23.5h551l60 432l59 236h102l-94 -668h178l-14 -96l-178 -14l-51 -367h-129l51 367h-592q-88 0 -124 67.5z" />
<glyph unicode="5" horiz-adv-x="1085" d="M41 29l27 106q170 -47 331 -41q367 18 412 342q25 184 -74.5 240.5t-386.5 62.5l-96 9q-27 0 -43 19t-12 48l114 598h727l-22 -115h-610l-84 -440l133 -8q276 -12 394 -102.5t89 -323.5q-10 -78 -35.5 -144.5t-80 -137t-156 -115.5t-240.5 -52q-195 -8 -387 54z" />
<glyph unicode="6" horiz-adv-x="1161" d="M132 286.5q-11 159.5 26 407.5q35 240 86 389.5t132 226t172 102.5t234.5 26t278.5 -29l-21 -98q-102 12 -249 12q-158 0 -245 -43t-148.5 -172t-102.5 -383q162 184 399 190q203 6 284 -101t44 -365q-35 -238 -147.5 -356t-350.5 -118q-197 0 -289 76t-103 235.5z M276 600q-41 -291 6.5 -400.5t247.5 -109.5q172 0 254 93t109 280q27 190 -19 269t-208 73q-102 -4 -191.5 -47t-198.5 -158z" />
<glyph unicode="7" horiz-adv-x="1036" d="M180 1298l10 115h789q59 0 77.5 -29.5t-7.5 -83.5l-629 -1300h-137l583 1206q20 45 54 92h-740z" />
<glyph unicode="8" horiz-adv-x="1245" d="M117 358q27 178 90 269.5t192 103.5l4 8q-197 25 -155 328q29 199 131 283t352 82q256 0 339 -87.5t56 -289.5q-41 -295 -245 -318l-4 -8q123 -14 163.5 -109.5t16.5 -273.5q-29 -201 -135.5 -281.5t-378.5 -82.5q-262 -2 -358.5 86t-67.5 290zM248 371 q-23 -158 38.5 -216.5t266.5 -58.5q201 0 279.5 62.5t99.5 224.5q27 186 -29.5 240.5t-267.5 54.5q-213 -2 -287 -57.5t-100 -249.5zM369 1044q-23 -162 31.5 -209t252.5 -47q195 0 259.5 51.5t86.5 217.5q25 154 -29.5 209t-247 55t-262 -58.5t-91.5 -218.5z" />
<glyph unicode="9" horiz-adv-x="1161" d="M102 4l25 98q109 -12 264 -12q248 4 346.5 121t161.5 485q-90 -106 -181 -150t-210 -48q-215 -6 -291 112.5t-43 354.5q31 246 149.5 359.5t354.5 113.5q272 0 346 -161t10 -558q-37 -236 -85 -381t-127 -226t-173 -109t-243 -28q-163 0 -304 29zM299 950 q-27 -190 26 -269t205 -75q109 4 195 49t193 160q41 285 -7.5 396.5t-240.5 111.5q-180 0 -262 -88t-109 -285z" />
<glyph unicode=":" horiz-adv-x="458" d="M102 53l19 117q6 49 53 49h45q55 0 45 -53l-16 -119q-6 -47 -53 -47h-45q-53 0 -48 53zM199 729l16 117q6 49 55 49h45q53 0 45 -55l-16 -117q-6 -47 -53 -47h-45q-57 0 -47 53z" />
<glyph unicode=";" horiz-adv-x="466" d="M61 -238q45 158 62 240q-45 0 -39 45l18 123q4 29 16.5 39t43.5 10h43q49 0 43 -51l-19 -133q-18 -133 -102 -295zM178 729l17 117q6 49 53 49h47q51 0 45 -55l-16 -117q-6 -47 -54 -47h-45q-57 0 -47 53z" />
<glyph unicode="&#x3c;" horiz-adv-x="1085" d="M106 555l15 104l874 363l-14 -113l-752 -305l664 -301l-14 -104z" />
<glyph unicode="=" horiz-adv-x="1204" d="M123 332l14 100h883l-14 -100h-883zM182 764l15 100h882l-14 -100h-883z" />
<glyph unicode="&#x3e;" horiz-adv-x="1083" d="M92 201l14 112l750 301l-661 308l14 102l770 -365l-14 -104z" />
<glyph unicode="?" horiz-adv-x="1019" d="M186 1417q12 2 49 8.5t48.5 8.5t42 7t47 6t48.5 4t59.5 4t65.5 2t81 1q203 0 299 -80t73 -243q-12 -84 -60 -156t-110.5 -126t-126 -111.5t-114.5 -138.5t-68 -179l-112 2q14 104 62 192.5t108.5 147.5t121 112.5t106.5 117t56 132.5q14 119 -45 169.5t-213 50.5 q-171 0 -411 -25zM342 53l18 117q5 49 54 49h37q55 0 45 -53l-17 -117q-6 -49 -53 -49h-37q-53 0 -47 53z" />
<glyph unicode="@" horiz-adv-x="1556" d="M127 463q47 276 151.5 365.5t344.5 89.5q143 0 403 -41l-100 -666q-8 -63 10 -91t70 -28q123 0 171 106.5t95 444.5q14 104 22.5 174t5 131.5t-9.5 96t-32.5 64.5t-52 42t-83 21.5t-108.5 10.5t-144 1h-630l10 96q240 10 622 14q139 0 225.5 -7t158 -33.5t103.5 -67.5 t49 -120t12 -179.5t-25 -253.5q-51 -387 -129 -520t-269 -133q-219 0 -198 231q-207 -236 -430 -236q-178 0 -230.5 126t-11.5 362zM243.5 177.5q28.5 -91.5 149.5 -91.5q197 0 422 250l72 465q-145 8 -223 8q-223 0 -297 -65.5t-113 -290.5q-39 -184 -10.5 -275.5z" />
<glyph unicode="A" horiz-adv-x="1253" d="M-55 0l665 1378q14 35 56 35h153q18 0 32.5 -12t16.5 -29l281 -1372h-135l-90 467h-617l-219 -467h-143zM365 586h536l-117 604q-4 20 -10 59t-8 60h-61q-6 -12 -26 -55.5t-30 -63.5z" />
<glyph unicode="B" horiz-adv-x="1259" d="M104 0l199 1413q158 16 434 17q257 0 353 -80q72 -60 72 -198q0 -45 -7 -97q-23 -152 -89.5 -228.5t-193.5 -89.5l-2 -10q150 -13 202 -109q35 -64 35 -164q0 -50 -9 -108q-31 -213 -136.5 -287.5t-351.5 -74.5q-328 0 -506 16zM252 102q168 -4 342 -4q190 0 270 57.5 t103 221.5q7 50 7 91q0 102 -45 146q-63 62 -257 66h-340zM348 784h330q174 2 248.5 57.5t97.5 211.5q6 43 6 78q0 96 -46 133q-62 51 -253 51q-233 0 -309 -2z" />
<glyph unicode="C" horiz-adv-x="1153" d="M152 713q55 401 196 563t438 162q213 0 375 -39l-24 -101q-150 18 -351 19q-233 0 -339.5 -130t-157.5 -487q-19 -142 -20 -247q-1 -149 39 -226q66 -131 290 -131h32q200 0 363 23l11 -101q-166 -43 -406 -43q-300 0 -402 171q-65 109 -65 310q0 114 21 257z" />
<glyph unicode="D" horiz-adv-x="1353" d="M104 0l199 1413q250 18 465 19q310 0 416 -163q68 -106 69 -314q0 -113 -20 -255q-31 -221 -79 -359t-130 -219t-185.5 -110.5t-263.5 -29.5q-209 0 -471 18zM254 104q205 -4 319 -4q170 0 267.5 51.5t158 181.5t95.5 380q22 149 22 257q0 148 -40 220q-70 125 -310 125 q-23 0 -342 -6z" />
<glyph unicode="E" horiz-adv-x="1136" d="M127 256l131 930q14 106 86 167.5t188 61.5q416 0 607 -12l-19 -103h-569q-145 0 -164 -151l-49 -348h633l-15 -105h-632l-60 -438q-3 -20 -3 -37q0 -108 126 -108h565v-103q-188 -12 -583 -12q-131 0 -195 70q-51 56 -50 142q0 22 3 46z" />
<glyph unicode="F" horiz-adv-x="1095" d="M100 0l164 1180q16 113 89 174t188 61q403 0 589 -12l-20 -103h-543q-78 0 -119.5 -35.5t-52.5 -115.5l-51 -365h614l-14 -104h-614l-97 -680h-133z" />
<glyph unicode="G" horiz-adv-x="1273" d="M150 713q37 283 119.5 442.5t208.5 221t327 61.5q233 0 403 -39l-24 -101q-182 20 -365 21q-258 0 -369.5 -127t-160.5 -492q-16 -138 -16 -242q0 -149 33 -229q56 -135 239 -135q111 0 205 56.5t211 168.5l69 500h131l-117 -819h-96l10 205q-203 -229 -454 -230 q-231 0 -316 175q-54 114 -54 316q0 111 16 247z" />
<glyph unicode="H" horiz-adv-x="1357" d="M104 0l199 1413h135l-84 -600h711l84 600h135l-199 -1413h-135l99 696h-711l-98 -696h-136z" />
<glyph unicode="I" horiz-adv-x="512" d="M104 0l199 1413h135l-198 -1413h-136z" />
<glyph unicode="J" horiz-adv-x="681" d="M-14 6l26 92h105q176 0 205 176l157 1139h135l-159 -1141q-41 -288 -297 -288h-2q-92 0 -170 22z" />
<glyph unicode="K" horiz-adv-x="1189" d="M104 0l199 1413h133l-63 -459q-18 -111 -33 -161h190l535 620h164l-510 -594q-41 -49 -86 -80l-2 -8q31 -35 57 -86l373 -645h-152l-391 682h-194q-4 -109 -13 -162l-73 -520h-134z" />
<glyph unicode="L" horiz-adv-x="1036" d="M137 262l160 1151h135l-162 -1155q-2 -16 -2 -31q0 -45 24 -75q32 -38 101 -39h531l-4 -103q-182 -12 -553 -12q-121 0 -183 70q-50 55 -50 145q0 24 3 49z" />
<glyph unicode="M" horiz-adv-x="1779" d="M76 0l248 1356q12 57 63 57h158q47 0 53 -49l186 -924q6 -33 16.5 -97t16.5 -95h45q47 113 86 194l438 926q19 45 64 45h160q29 1 43 -17q12 -15 12 -39v-7l-131 -1350h-133l129 1300h-43l-524 -1110q-16 -43 -62 -43h-135q-51 0 -57 50l-220 1103h-45l-233 -1300h-135z " />
<glyph unicode="N" horiz-adv-x="1429" d="M104 0l191 1360q8 53 61 53h129q45 0 62 -47l391 -1049q43 -121 66 -192h45q6 66 22 197l152 1091h133l-193 -1360q-6 -53 -59 -53h-135q-41 0 -60 47l-401 1075q-43 117 -55 166h-41q-6 -88 -19 -176l-153 -1112h-136z" />
<glyph unicode="O" horiz-adv-x="1359" d="M152 713q55 403 196.5 564t442.5 161q297 0 401 -167q67 -108 67 -315q0 -113 -20 -256q-55 -406 -196.5 -565.5t-438.5 -159.5q-296 0 -402 166q-69 108 -69 319q0 112 19 253zM289 700q-19 -139 -19 -244q0 -152 40 -230q68 -132 296 -132q229 0 337 134t157 485 q22 148 22 257q0 145 -39 219q-68 130 -297 130q-233 0 -339.5 -133t-157.5 -486z" />
<glyph unicode="P" horiz-adv-x="1198" d="M104 0l199 1413q174 16 469 17q242 0 330 -96q63 -69 63 -214q0 -57 -10 -127q-37 -254 -141.5 -341t-345.5 -87q-174 0 -346 17l-82 -582h-136zM334 682h332q178 2 253.5 67.5t102.5 254.5q8 57 8 103q0 99 -38 143q-54 64 -222 65q-182 0 -346 -4z" />
<glyph unicode="Q" horiz-adv-x="1359" d="M152 713q55 403 196.5 564t442.5 161q297 0 401 -167q67 -108 67 -315q0 -113 -20 -256q-55 -406 -196.5 -565.5t-438.5 -159.5t-402 166q-69 108 -69 319q0 112 19 253zM289 700q-19 -139 -19 -244q0 -152 40 -230q69 -132 296 -132q229 0 337 134t157 485 q22 148 22 257q0 145 -39 219q-68 130 -297 130q-233 0 -339.5 -133t-157.5 -486zM446 -174l54 80q197 -117 493 -166l-51 -133q-289 59 -496 219z" />
<glyph unicode="R" horiz-adv-x="1257" d="M104 0l199 1413q174 16 469 17q234 0 328 -90q71 -67 71 -215q0 -48 -8 -105q-25 -172 -98.5 -257t-216.5 -106l-2 -10q113 -33 143 -201l90 -446h-137l-86 446q-16 86 -58 122t-118 38q-63 0 -141 1t-129.5 2t-85.5 1l-86 -610h-134zM338 723h336q174 2 250.5 66.5 t101.5 236.5q8 52 8 94q0 92 -38 134q-56 60 -226 61q-184 0 -348 -4z" />
<glyph unicode="S" horiz-adv-x="1142" d="M61 8l19 101q248 -12 407 -13q195 2 274 47t101 199q4 36 4 65q0 65 -21 99q-31 49 -140 94l-291 113q-144 57 -196 145q-38 65 -39 164q0 35 5 74q16 115 55.5 185.5t108.5 102.5q68 34 140 44q61 9 152 8h36q219 0 405 -35l-16 -96q-227 12 -406 12q-59 0 -88.5 -1 t-73.5 -8.5t-66.5 -21.5t-48.5 -39.5t-40 -66.5t-23 -99q-3 -30 -4 -55q0 -68 24 -105q32 -51 136 -94l287 -110q158 -61 207 -147q34 -60 34 -154q0 -41 -6 -88q-16 -115 -53 -184.5t-106.5 -106.5t-149.5 -48.5t-211 -11.5q-221 0 -416 31z" />
<glyph unicode="T" horiz-adv-x="1163" d="M141 1294l19 119h1073l-16 -119h-472l-182 -1294h-135l182 1294h-469z" />
<glyph unicode="U" horiz-adv-x="1361" d="M170 539l123 874h135l-125 -881q-11 -82 -11 -147q0 -131 44 -195q66 -96 268 -96q205 0 304.5 99.5t131.5 345.5l123 874h135l-124 -881q-43 -303 -172.5 -430t-393.5 -127q-272 -1 -376 131q-74 93 -75 272q0 73 13 161z" />
<glyph unicode="V" horiz-adv-x="1226" d="M147 1413h138l202 -1157q2 -16 8.5 -48t10.5 -57.5t6 -48.5h53q37 90 68 162l526 1149h141l-643 -1376q-14 -37 -55 -37h-145q-41 0 -49 43z" />
<glyph unicode="W" horiz-adv-x="1918" d="M172 1413h137l99 -1149q4 -51 8 -162h53l57 166l402 1102q16 43 59 43h154q20 0 33.5 -14.5t15.5 -34.5l104 -1100q8 -113 11 -162h53l55 166l416 1145h141l-512 -1374q-14 -39 -59 -39h-160q-47 0 -51 47l-96 1106l-13 156h-47l-57 -162l-402 -1106q-16 -41 -59 -41 h-160q-20 0 -35.5 13.5t-17.5 31.5z" />
<glyph unicode="X" horiz-adv-x="1232" d="M-27 0l523 735l-295 678h139l264 -625h66l446 625h150l-486 -680l314 -733h-140l-284 684h-64l-477 -684h-156z" />
<glyph unicode="Y" horiz-adv-x="1134" d="M137 1413h137l236 -631q25 -66 47 -151h14q25 53 88 157l412 625h148l-603 -907l-69 -506h-135l71 510z" />
<glyph unicode="Z" horiz-adv-x="1144" d="M14 0l17 115l954 1183h-780l16 115h932l-18 -115l-955 -1183h803l-18 -115h-951z" />
<glyph unicode="[" horiz-adv-x="653" d="M76 -242l241 1725q14 90 103 90h282l-12 -90h-217q-29 0 -37 -33l-233 -1671q-4 -27 20 -27h223l-12 -90h-274q-43 0 -66.5 24.5t-17.5 71.5z" />
<glyph unicode="\" horiz-adv-x="1021" d="M168 1413h106l592 -1542h-106z" />
<glyph unicode="]" horiz-adv-x="653" d="M-45 -338l12 90h215q31 0 39 33l236 1671q4 27 -23 27h-223l12 90h275q41 0 65.5 -27.5t18.5 -68.5l-242 -1725q-6 -41 -35 -65.5t-67 -24.5h-283z" />
<glyph unicode="^" horiz-adv-x="847" d="M102 791l375 419h94l258 -422l-59 -36l-244 362h-16l-354 -362z" />
<glyph unicode="_" horiz-adv-x="1204" d="M63 -102l17 102h891l-15 -102h-893z" />
<glyph unicode="`" horiz-adv-x="616" d="M186 1378l76 92l318 -301l-52 -59z" />
<glyph unicode="a" horiz-adv-x="1167" d="M119 504q25 164 60.5 264t99 155.5t141.5 75t201 19.5q186 0 432 -41l-140 -977h-100l18 223q-98 -113 -220 -180.5t-242 -67.5q-181 0 -237 120q-31 68 -32 189q0 94 19 220zM242 176q28 -86 147 -86q200 0 442 246l80 563q-217 8 -254 8q-94 0 -152.5 -10t-103.5 -32.5 t-72.5 -74t-46 -118t-34.5 -178.5q-19 -128 -20 -212q1 -68 14 -106z" />
<glyph unicode="b" horiz-adv-x="1165" d="M86 43l197 1391h129l-60 -412q-22 -158 -51 -262q256 256 461 256q176 0 238 -115q37 -69 37 -204q0 -90 -17 -210q-23 -164 -59.5 -266t-98 -155.5t-132.5 -72t-183 -18.5q-223 0 -461 68zM225 104q164 -20 279 -20q207 0 277.5 77t105.5 337q17 123 17 204 q0 78 -16 118q-32 80 -155 81h-1q-158 0 -429 -237z" />
<glyph unicode="c" horiz-adv-x="985" d="M106 502q39 285 158 400.5t371 115.5q182 0 303 -45l-23 -84q-109 16 -260 16q-201 0 -292 -86t-121 -327q-12 -84 -11 -148q-1 -120 39 -174q62 -82 256 -82q174 0 295 23l10 -91q-147 -45 -325 -45q-258 0 -349 121q-63 84 -63 247q0 72 12 159z" />
<glyph unicode="d" horiz-adv-x="1165" d="M117 504q23 164 59.5 264t99 155.5t138 75t194.5 19.5q143 0 322 -25q6 109 18 191l35 250h131l-203 -1434h-100l18 231q-236 -256 -483 -256q-162 0 -216 124q-31 70 -31 192q0 92 18 213zM240 180q26 -90 139 -90q198 0 452 248l76 563q-213 8 -256 8 q-219 0 -292.5 -75.5t-110.5 -339.5q-20 -127 -20 -211q1 -64 12 -103z" />
<glyph unicode="e" horiz-adv-x="1091" d="M109 514q41 295 157.5 399.5t374.5 104.5q215 0 302 -75q63 -54 63 -155q0 -38 -9 -83q-27 -133 -107.5 -190.5t-252.5 -74.5l-408 -39q-2 -28 -2 -53q-1 -140 57 -196q68 -66 236 -66q148 0 365 27l10 -88q-141 -49 -399 -50q-250 0 -339 126q-61 86 -61 248 q0 74 13 165zM242 502l395 39q113 12 162 48t67 126q9 39 9 69q1 64 -39 88q-58 36 -205 35q-98 0 -157.5 -14t-108 -57t-76 -120t-47.5 -206v-8z" />
<glyph unicode="f" horiz-adv-x="753" d="M-252 -406l19 97h157q102 0 150.5 42t62.5 150l142 1006h-179l13 92l180 10l29 193q37 282 309 282h2q154 0 268 -12l-18 -96h-209q-109 0 -160 -42t-65 -151l-25 -174h336l-17 -102h-333l-144 -1024q-41 -283 -301 -283q-96 0 -217 12z" />
<glyph unicode="g" horiz-adv-x="1173" d="M35 -416l14 88q87 -4 172 -4t168 4q344 20 397 316q35 199 74 268q-100 -127 -232 -204t-263 -77q-172 0 -231 120q-33 69 -33 194q0 93 18 215q25 164 61.5 264t99 155.5t137.5 75t193 19.5q197 0 443 -41h10l-145 -969q-55 -428 -525 -446q-52 -3 -102 -3 q-140 0 -256 25zM244 176q28 -86 147 -86q201 0 445 248l84 561q-221 8 -265 8q-219 0 -292.5 -74.5t-112.5 -338.5q-19 -127 -19 -211q0 -68 13 -107z" />
<glyph unicode="h" horiz-adv-x="1175" d="M84 0l203 1434h129l-56 -416q-18 -125 -47 -248q287 248 486 248q131 0 193 -72q47 -55 46 -146q0 -28 -4 -59l-106 -741h-129l100 715q4 32 4 58q1 59 -21 89q-32 43 -120 43q-94 0 -196.5 -57t-258.5 -184l-92 -664h-131z" />
<glyph unicode="i" horiz-adv-x="483" d="M94 0l139 991h129l-139 -991h-129zM260 1249l19 121q2 39 45 39h59q40 0 39 -35v-10l-16 -121q-6 -39 -46 -39h-59q-42 0 -42 35q0 5 1 10z" />
<glyph unicode="j" horiz-adv-x="483" d="M-74 -362q135 145 160 317l147 1036h129l-147 -1044q-31 -223 -219 -369zM260 1249l19 121q2 39 45 39h59q40 0 40 -35q0 -5 -1 -10l-16 -121q-6 -39 -46 -39h-59q-42 0 -42 35q0 5 1 10z" />
<glyph unicode="k" horiz-adv-x="1042" d="M86 0l201 1434h131l-101 -732q-12 -98 -51 -219q219 84 377 214t217 294h133q-98 -272 -358 -442q33 -57 57 -111l205 -438h-139l-223 489q-96 -51 -267 -116l-53 -373h-129z" />
<glyph unicode="l" horiz-adv-x="579" d="M119 225l170 1209h129l-166 -1190q-3 -21 -3 -39q1 -44 21 -69q30 -34 103 -34h106l6 -98q-49 -20 -163 -20q-110 0 -164 64q-43 50 -42 130q0 22 3 47z" />
<glyph unicode="m" horiz-adv-x="1789" d="M84 0l141 991h99l-19 -223q260 250 445 250q121 0 181 -62q55 -57 54 -156v-20q248 238 430 238q131 0 191 -73q46 -56 45 -146q0 -27 -4 -58l-105 -741h-129l103 715q4 29 4 53q0 62 -26 93q-36 44 -124 44q-82 0 -166 -52t-233 -187l-94 -666h-125l100 715q4 29 4 54 q0 59 -24 91q-34 45 -125 45q-82 0 -167 -53t-233 -184l-94 -668h-129z" />
<glyph unicode="n" horiz-adv-x="1175" d="M84 0l141 991h103l-21 -225q287 252 492 252q131 0 193 -72q47 -55 46 -146q0 -28 -4 -59l-106 -741h-129l100 715q4 32 4 58q1 59 -21 89q-32 43 -120 43q-94 0 -195.5 -56t-259.5 -181l-92 -668h-131z" />
<glyph unicode="o" horiz-adv-x="1150" d="M106 502q39 283 156 399.5t364.5 116.5t339.5 -122q63 -84 62 -246q0 -73 -12 -161q-39 -283 -156 -398.5t-362 -115.5q-250 0 -340 120q-63 84 -63 251q0 71 11 156zM242 489q-12 -87 -12 -153q0 -110 34 -164q55 -86 234 -86q182 0 267 90t118 326q12 86 12 152 q-1 111 -35 165q-56 86 -233 86q-182 0 -267.5 -89t-117.5 -327z" />
<glyph unicode="p" horiz-adv-x="1169" d="M25 -428l200 1419h103l-21 -231q102 109 233.5 182.5t233.5 73.5q180 0 234 -118q32 -67 32 -192q0 -93 -18 -219q-25 -162 -61.5 -263t-99 -155.5t-138.5 -74t-197 -19.5q-152 0 -319 23q-2 -96 -17 -191l-36 -235h-129zM229 90q162 -6 254 -6q117 0 181.5 13.5 t112.5 61.5t70.5 123.5t43.5 215.5q19 127 19 211q0 68 -13 107q-29 85 -147 85q-84 0 -205 -65.5t-238 -180.5z" />
<glyph unicode="q" horiz-adv-x="1161" d="M115 504q23 164 59.5 266t97 156.5t131 73t181.5 18.5q219 0 463 -70l-197 -1376h-129l61 405q20 156 58 265q-238 -266 -478 -267q-162 0 -224 117q-38 72 -38 211q0 87 15 201zM244 176q30 -86 153 -86q104 0 197.5 55.5t236.5 192.5l76 549q-141 20 -278 20 q-205 0 -276.5 -76.5t-104.5 -336.5q-17 -122 -17 -204q0 -73 13 -114z" />
<glyph unicode="r" horiz-adv-x="804" d="M84 0l141 991h99l-19 -233q272 260 473 260h47l-32 -123h-48q-86 0 -182 -54.5t-256 -178.5l-92 -662h-131z" />
<glyph unicode="s" horiz-adv-x="1030" d="M51 4l17 96q127 -14 329 -14q197 4 266.5 30.5t81.5 112.5q3 15 3 29q0 29 -12 50q-17 32 -41 45t-83 38l-295 123q-109 48 -155 106q-35 45 -34 119q0 23 3 49q21 142 115 188q87 43 264 42h31q213 -4 405 -31l-16 -92q-186 10 -385 12h-26q-137 1 -191 -19 q-58 -22 -70 -110q-3 -18 -2 -34q0 -44 20 -68q28 -32 107 -64l297 -123q119 -49 164 -105q34 -42 34 -115q0 -24 -4 -52q-8 -66 -34.5 -111t-60.5 -70.5t-93 -38.5t-116.5 -17.5t-147.5 -4.5q-141 0 -371 29z" />
<glyph unicode="t" horiz-adv-x="747" d="M94 889l12 92l185 10l43 301h127l-41 -301h334l-17 -102h-334l-90 -645q-3 -20 -3 -37q0 -48 22 -72q28 -33 104 -33h164l6 -98q-90 -20 -207 -20q-123 0 -177 66q-42 51 -42 132q0 24 4 51l92 656h-182z" />
<glyph unicode="u" horiz-adv-x="1153" d="M113 250l104 741h131l-102 -712q-4 -29 -5 -54q1 -59 25 -91q34 -46 123 -46q94 0 188.5 58.5t243.5 193.5l90 651h129l-139 -991h-100l20 231q-262 -256 -473 -256q-134 0 -194 72q-46 55 -46 144q0 28 5 59z" />
<glyph unicode="v" horiz-adv-x="1067" d="M102 991h136l168 -887h34q37 0 57.5 11.5t47.5 44.5q80 104 172 297q129 258 184 534h135q-70 -313 -211 -588q-125 -231 -196 -319q-33 -45 -69 -64.5t-93 -19.5h-119q-39 0 -47 37z" />
<glyph unicode="w" horiz-adv-x="1714" d="M102 991h134l153 -887h27q51 0 88 62q66 100 137 293q78 209 137 499q4 33 32 33h7h141q31 0 39 -33l113 -854h25q45 0 82 58q104 158 161 297q98 217 160 532h135q-76 -334 -194 -588q-106 -223 -189 -323q-61 -80 -147 -80h-88q-41 0 -45 37l-113 866h-23 q-35 -229 -126 -477q-76 -209 -162 -328q-59 -98 -174 -98h-80q-37 0 -45 37z" />
<glyph unicode="x" horiz-adv-x="1058" d="M-31 0l422 516l-254 475h133l219 -422h60l344 422h143l-389 -477l275 -514h-134l-243 465h-53l-373 -465h-150z" />
<glyph unicode="y" horiz-adv-x="1083" d="M76 -334q229 63 411 334h-84q-41 0 -70.5 23.5t-37.5 62.5l-197 905h138l170 -844q10 -43 51 -43h96l47 82q207 367 311 805h136q-115 -473 -332 -841q-158 -276 -298.5 -407.5t-318.5 -166.5z" />
<glyph unicode="z" horiz-adv-x="1017" d="M16 0l13 109l770 776h-652l15 106h807l-15 -106l-770 -776h666l-14 -109h-820z" />
<glyph unicode="{" horiz-adv-x="636" d="M100 623l15 102q88 25 113.5 48.5t37.5 117.5l60 418q20 145 102 209.5t252 54.5l-6 -84q-109 0 -160 -46t-68 -149l-53 -385q-16 -125 -56 -170t-149 -67q100 -37 130 -83t16 -153l-70 -502q-14 -102 20.5 -145t145.5 -43l-6 -84q-166 -8 -235.5 59.5t-47.5 210.5 l74 535q10 74 -9.5 98.5t-90.5 50.5q-10 4 -15 7z" />
<glyph unicode="|" horiz-adv-x="493" d="M66 -346l272 1945h98l-274 -1945h-96z" />
<glyph unicode="}" horiz-adv-x="636" d="M-45 -338l6 84q109 0 159 46t64 147l70 503q16 106 57 150.5t156 79.5q-98 23 -128 72t-9 171l53 385q14 102 -20.5 145.5t-145.5 43.5l6 84q168 10 236.5 -59.5t48.5 -210.5l-59 -418q-12 -94 5 -115.5t101 -48.5l-14 -103q-49 -16 -66.5 -24t-42 -25.5t-34 -42 t-15.5 -65.5l-76 -535q-20 -145 -100 -208.5t-252 -55.5z" />
<glyph unicode="~" horiz-adv-x="1077" d="M145 479q6 113 55.5 168t123.5 51q84 -4 213 -62t194 -65q59 -4 88 25t39 96l70 -6q-4 -106 -54.5 -162.5t-123.5 -50.5q-98 4 -225.5 62.5t-182.5 62.5q-59 6 -88 -24.5t-39 -100.5z" />
<glyph unicode="&#xa2;" horiz-adv-x="1032" d="M137 721q41 285 160 399.5t369 114.5h14l39 178h72l-41 -182q133 -8 219 -41l-23 -82q-119 14 -223 14l-176 -817h10q160 0 295 23l10 -90q-154 -45 -325 -45h-19l-43 -193h-72l46 197q-205 18 -277 140t-35 384zM272 711q-29 -215 16.5 -302.5t186.5 -101.5l176 815 q-180 -6 -264 -93t-115 -318z" />
<glyph unicode="&#xa3;" horiz-adv-x="1155" d="M47 0l16 117q197 98 224 409l16 176h-166l13 84h159l27 289q10 117 43 191.5t92 110.5t123.5 47.5t165.5 11.5q155 -1 352 -21l-16 -104q-188 10 -355 10q-139 0 -201.5 -56.5t-74.5 -195.5l-25 -283h465l-16 -84h-455l-16 -176q-12 -154 -58.5 -252t-146.5 -163 q41 4 127 4h641l-16 -115h-918z" />
<glyph unicode="&#xa5;" horiz-adv-x="1249" d="M145 338l13 82h370l17 123l-10 24h-357l10 82h314l-307 764h137l235 -598q37 -94 51 -151h17q37 78 90 155l401 594h150l-520 -764h317l-12 -82h-363l-20 -30l-16 -117h378l-12 -82h-377l-47 -338h-135l47 338h-371z" />
<glyph unicode="&#xa8;" horiz-adv-x="833" d="M287 1255l16 113q6 41 47 41h41q41 0 35 -41l-16 -111q-6 -41 -45 -40h-41q-39 0 -37 38zM639 1255l16 113q6 41 47 41h39q43 0 37 -41l-18 -111q-2 -41 -43 -40h-43q-41 0 -35 38z" />
<glyph unicode="&#xa9;" horiz-adv-x="1724" d="M145 713q41 317 262.5 521t557.5 204q322 0 505 -205t140 -533q-41 -319 -263.5 -522t-558.5 -203q-324 0 -505 207t-138 531zM219 700q-37 -293 125 -473t442 -180q303 0 507 185.5t241 480.5q39 289 -120.5 471t-444.5 182q-303 0 -507 -185.5t-243 -480.5zM489 717 q35 256 138.5 355t328.5 99q150 0 265 -26l-17 -74q-106 10 -237 10q-186 0 -264 -75.5t-111 -298.5q-29 -205 21.5 -284t213.5 -79q191 0 293 12l6 -75q-133 -29 -284 -29q-233 0 -310 103.5t-43 361.5z" />
<glyph unicode="&#xab;" horiz-adv-x="958" d="M80 504l4 33l385 399l55 -49l-329 -375l231 -381l-66 -45zM434 504l4 33l385 399l56 -49l-330 -375l231 -381l-65 -45z" />
<glyph unicode="&#xad;" d="M137 465l15 102h628l-14 -102h-629z" />
<glyph unicode="&#xae;" horiz-adv-x="1155" d="M176 993q23 207 159 325t337 118q205 0 321.5 -124t91.5 -335q-25 -203 -157.5 -328t-335.5 -125q-209 0 -324.5 130t-91.5 339zM227 985q-20 -190 82.5 -301t282.5 -111q186 0 304 115t138 299q20 188 -79 295t-283 107q-190 0 -307 -111t-138 -293zM383 709l78 546 q76 6 211 7q115 0 165 -31t37 -129q-8 -66 -37.5 -96.5t-95.5 -42.5l-2 -5q41 -14 58 -79l45 -170h-70l-41 172q-16 61 -80 61h-168l-34 -233h-66zM489 991h156q84 2 120 23.5t44 93.5q8 66 -19.5 84t-115.5 18h-154z" />
<glyph unicode="&#xb4;" horiz-adv-x="616" d="M209 1171l377 302l65 -101l-397 -262z" />
<glyph unicode="&#xb8;" horiz-adv-x="466" d="M-57 -463l24 72q90 -2 154.5 44t77.5 118q6 43 -15.5 57t-93.5 16l16 64q111 10 157 -21.5t32 -117.5q-18 -119 -115.5 -184.5t-236.5 -47.5z" />
<glyph unicode="&#xbb;" horiz-adv-x="958" d="M55 133l330 373l-231 383l65 43l279 -418l-2 -31l-387 -401zM410 133l329 373l-231 383l65 43l279 -418l-2 -31l-387 -401z" />
<glyph unicode="&#x2c6;" horiz-adv-x="839" d="M201 1200l305 254h94l250 -260l-49 -53l-242 207h-18l-301 -205z" />
<glyph unicode="&#x2da;" horiz-adv-x="608" d="M209 1311q10 86 70.5 144t152.5 58q94 0 150.5 -61t46.5 -154q-12 -84 -72.5 -142t-153.5 -58q-94 0 -149 61.5t-45 151.5zM287 1303q-8 -59 26.5 -96.5t92.5 -37.5q59 0 99 40t46 100q6 57 -26.5 95t-92 38t-99.5 -40t-46 -99z" />
<glyph unicode="&#x2dc;" horiz-adv-x="843" d="M209 1210q6 109 56 164.5t124 48.5q66 -6 146.5 -61t134.5 -62q61 -6 91 22t40 93l65 -4q-6 -104 -55 -158.5t-125 -48.5q-78 6 -161 62.5t-122 62.5q-113 10 -131 -125z" />
<glyph unicode="&#x401;" horiz-adv-x="1136" d="M127 256l131 930q14 106 86 167.5t188 61.5q416 0 607 -12l-19 -103h-569q-145 0 -164 -151l-49 -348h633l-15 -105h-632l-60 -438q-23 -145 123 -145h565v-103q-188 -12 -583 -12q-131 0 -194.5 69.5t-47.5 188.5zM537 1663l16 113q6 41 45 41h41q43 0 37 -41l-19 -111 q-2 -41 -43 -41h-43q-41 0 -34 39zM887 1663l18 113q6 41 45 41h41q41 0 35 -41l-16 -111q-2 -41 -43 -41h-43q-39 0 -37 39z" />
<glyph unicode="&#x402;" horiz-adv-x="1527" d="M143 1294l17 119h1073l-14 -119h-474l-75 -546q225 152 452 151q170 0 247 -98.5t44 -335.5q-39 -262 -186.5 -369.5t-399.5 -99.5l-4 96q213 14 318.5 92t136.5 281q29 184 -20.5 249.5t-170.5 65.5q-119 0 -211 -33.5t-223 -117.5l-90 -629h-133l182 1294h-469z" />
<glyph unicode="&#x403;" horiz-adv-x="1054" d="M100 0l164 1171q16 121 88 182.5t178 61.5q401 0 590 -12l-18 -103h-535q-78 0 -119.5 -35.5t-54.5 -121.5l-160 -1143h-133zM614 1559l377 301l66 -101l-398 -262z" />
<glyph unicode="&#x404;" horiz-adv-x="1167" d="M150 713q55 408 204.5 566.5t462.5 158.5q203 0 365 -39l-25 -103q-166 20 -330 21q-244 0 -358.5 -108.5t-167.5 -407.5h619l-15 -105h-620q-45 -340 24.5 -467t302.5 -133q190 -4 385 25l11 -103q-186 -47 -396 -43q-313 8 -414.5 173t-47.5 565z" />
<glyph unicode="&#x405;" horiz-adv-x="1142" d="M61 8l19 101q248 -12 407 -13q195 2 274 47t101 199q14 115 -17 164t-140 94l-291 113q-145 57 -196.5 145t-33.5 238q16 115 55.5 185.5t108 103t141 43t187.5 8.5q219 0 405 -35l-16 -96q-227 12 -406 12q-59 0 -88.5 -1t-73.5 -8.5t-66.5 -21.5t-48.5 -39.5t-40 -66.5 t-23 -99q-12 -109 20 -160t136 -94l287 -110q158 -61 207 -146.5t28 -242.5q-16 -115 -53 -184.5t-106.5 -106.5t-149.5 -48.5t-211 -11.5q-221 0 -416 31z" />
<glyph unicode="&#x406;" horiz-adv-x="509" d="M104 0l199 1413h135l-198 -1413h-136z" />
<glyph unicode="&#x407;" horiz-adv-x="512" d="M104 0l199 1413h135l-198 -1413h-136zM162 1618l16 113q6 41 45 41h41q43 0 37 -41l-18 -111q-2 -41 -43 -41h-43q-41 0 -35 39zM512 1618l18 113q6 41 45 41h41q43 0 37 -41l-18 -111q-2 -41 -43 -41h-43q-39 0 -37 39z" />
<glyph unicode="&#x408;" horiz-adv-x="681" d="M-14 6l26 92h105q176 0 205 176l157 1139h135l-159 -1141q-41 -289 -299 -288q-92 0 -170 22z" />
<glyph unicode="&#x409;" horiz-adv-x="1984" d="M-20 117q131 35 237 180q88 127 131 270.5t144 606.5q29 127 96 183t186 56h455l-82 -590h317q250 0 339 -96t55 -332q-31 -238 -138.5 -324.5t-343.5 -86.5q-309 0 -479 16l184 1303h-274q-84 0 -125 -35t-61 -125q-109 -500 -150 -619q-51 -156 -135 -276 q-145 -219 -350 -250zM1044 104q80 -2 275 -2q215 0 296 57.5t109 248.5q25 172 -29.5 237.5t-238.5 65.5h-326z" />
<glyph unicode="&#x40a;" horiz-adv-x="2002" d="M106 0l199 1413h135l-84 -594h674l84 594h133l-84 -592h320q250 0 339 -96t54 -330q-31 -238 -138.5 -324.5t-342.5 -86.5q-309 0 -480 16l99 707h-674l-98 -707h-136zM1063 104q78 -2 313 -2q186 0 263 62.5t104 243.5q25 170 -29.5 235.5t-238.5 65.5h-328z" />
<glyph unicode="&#x40b;" horiz-adv-x="1587" d="M141 1294l19 119h1073l-16 -119h-472l-79 -569q260 174 522 174q322 0 278 -315l-82 -584h-135l80 565q16 115 -25.5 164t-158.5 49q-129 0 -237.5 -38t-260.5 -136l-84 -604h-135l182 1294h-469z" />
<glyph unicode="&#x40c;" horiz-adv-x="1202" d="M104 0l199 1413h133l-63 -459q-18 -111 -33 -161h170q86 0 157.5 36.5t147.5 141t109.5 164t122.5 227.5q18 35 28 53l139 -4q-172 -336 -247 -444q-150 -214 -316 -228l-4 -6q113 -12 188.5 -109.5t106.5 -197.5t86 -334q14 -61 23 -94l-138 4q-80 342 -106 416 q-70 199 -197 246q-47 18 -108 18h-178q0 -72 -13 -162l-73 -520h-134zM631 1559l377 301l65 -101l-397 -262z" />
<glyph unicode="&#x40d;" horiz-adv-x="1404" d="M104 0l199 1413h131l-145 -1030q-20 -141 -37 -209l6 2q37 59 102 150l826 1087h143l-199 -1413h-129l146 1034q12 80 35 205l-6 -2q-10 -16 -29 -46t-34 -53.5t-30 -41.5l-833 -1096h-146zM535 1763l75 95l318 -302l-51 -59z" />
<glyph unicode="&#x40e;" horiz-adv-x="1130" d="M94 14l21 97q72 -8 112.5 -11.5t81.5 6t61.5 19.5t51.5 47t50.5 69.5t57.5 104.5l37 68h-78q-98 0 -116 92l-209 907h135l186 -852q8 -33 45 -33h95l440 885h143l-538 -1075q-55 -109 -95 -172.5t-106 -118.5t-141 -59q-115 -10 -234 26zM432 1794l70 6q-10 -80 43 -123 t155 -43q109 0 177.5 46t76.5 126l70 -18q-10 -117 -98 -185.5t-226 -68.5q-143 0 -216.5 71.5t-51.5 188.5z" />
<glyph unicode="&#x40f;" horiz-adv-x="1374" d="M106 0l199 1413h135l-184 -1302h727l182 1302h135l-198 -1413h-428l-49 -309h-95l35 309h-459z" />
<glyph unicode="&#x410;" horiz-adv-x="1253" d="M-55 0l665 1378q14 35 56 35h153q18 0 32.5 -12t16.5 -29l281 -1372h-135l-90 467h-617l-219 -467h-143zM365 586h536l-117 604q-4 20 -10 59t-8 60h-61q-6 -12 -26 -55.5t-30 -63.5z" />
<glyph unicode="&#x411;" horiz-adv-x="1216" d="M104 0l199 1413q176 10 422 10q188 0 424 -10l-27 -110h-700l-72 -515h330q254 0 342 -91t55 -316q-33 -231 -139.5 -314t-343.5 -83q-313 0 -490 16zM254 102q160 -4 326 -4q186 0 262 60.5t100 236.5q23 166 -29.5 225.5t-238.5 59.5h-340z" />
<glyph unicode="&#x412;" horiz-adv-x="1259" d="M104 0l199 1413q158 16 434 17q258 0 353.5 -80t64.5 -295q-23 -152 -89.5 -228.5t-193.5 -89.5l-2 -10q150 -12 202 -108.5t26 -272.5q-31 -213 -136.5 -287.5t-351.5 -74.5q-328 0 -506 16zM252 102q168 -4 342 -4q190 0 270 57.5t103 221.5q25 176 -38 237.5 t-257 65.5h-340zM348 784h330q174 2 248.5 57.5t97.5 211.5q23 160 -39.5 211t-253.5 51q-233 0 -309 -2z" />
<glyph unicode="&#x413;" horiz-adv-x="1054" d="M100 0l164 1171q16 121 88 182.5t178 61.5q401 0 590 -12l-18 -103h-535q-78 0 -119.5 -35.5t-54.5 -121.5l-160 -1143h-133z" />
<glyph unicode="&#x414;" horiz-adv-x="1382" d="M-82 -309l43 309l14 111h125q254 389 373 1063q41 240 283 239h506l-183 -1302h170l-12 -97l-45 -323h-102l28 309h-1038l-60 -309h-102zM248 111h696l168 1192h-332q-78 0 -121 -36t-57 -122q-127 -676 -354 -1034z" />
<glyph unicode="&#x415;" horiz-adv-x="1136" d="M127 256l131 930q14 106 86 167.5t188 61.5q416 0 607 -12l-19 -103h-569q-145 0 -164 -151l-49 -348h633l-15 -105h-632l-60 -438q-23 -145 123 -145h565v-103q-188 -12 -583 -12q-131 0 -194.5 69.5t-47.5 188.5z" />
<glyph unicode="&#x416;" horiz-adv-x="1839" d="M-8 0q43 92 59.5 128t53 113.5t54 108.5t51.5 91.5t54.5 85t52 66.5t57 59.5t58.5 40t66.5 31.5t70.5 13l2 6q-43 6 -80.5 31t-65.5 53.5t-54.5 86t-42 99.5t-37 125t-31.5 130t-31 145h131q72 -319 105 -407q94 -205 242 -213h196q0 76 12 168l64 452h129l-66 -459 q-14 -98 -30 -161h182q100 0 195.5 93t146.5 185t154 301q14 27 20 41h137q-158 -336 -215 -430q-141 -228 -305 -244v-6q61 -8 107.5 -43t78 -88t59 -138t48 -173t47.5 -211q10 -53 16 -80h-133q-80 362 -104 438q-63 193 -178 232q-37 12 -80 12h-195q-4 -109 -12 -162 l-72 -520h-129l74 524q12 82 33 158h-187q-86 0 -151.5 -32t-139 -141.5t-109.5 -176t-136 -275.5q-18 -37 -29 -57h-143z" />
<glyph unicode="&#x417;" horiz-adv-x="1116" d="M0 25l18 96q264 -25 428 -25q186 0 266.5 57.5t104.5 223.5q25 176 -38.5 238.5t-254.5 62.5h-229l14 108h223q172 0 247 55.5t95 211.5q23 160 -37.5 212t-250.5 52q-74 0 -143.5 -3t-136.5 -9.5t-83 -6.5l-6 101q174 31 375 31q250 0 349 -82t69 -293 q-23 -154 -88.5 -229.5t-194.5 -88.5l-4 -10q147 -14 199.5 -109.5t27.5 -271.5q-29 -211 -132 -286.5t-351 -75.5q-276 0 -467 41z" />
<glyph unicode="&#x418;" horiz-adv-x="1404" d="M104 0l199 1413h131l-145 -1030q-20 -141 -37 -209l6 2q37 59 102 150l826 1087h143l-199 -1413h-129l146 1034q12 80 35 205l-6 -2q-10 -16 -29 -46t-34 -53.5t-30 -41.5l-833 -1096h-146z" />
<glyph unicode="&#x419;" horiz-adv-x="1404" d="M104 0l199 1413h131l-145 -1030q-20 -141 -37 -209l6 2q37 59 102 150l826 1087h143l-199 -1413h-129l146 1034q12 80 35 205l-6 -2q-10 -16 -29 -46t-34 -53.5t-30 -41.5l-833 -1096h-146zM571 1800h103q-31 -190 172 -190q92 0 148.5 48t66.5 142h102 q-10 -119 -98 -192.5t-225 -73.5q-143 0 -217 73.5t-52 192.5z" />
<glyph unicode="&#x41a;" horiz-adv-x="1202" d="M104 0l199 1413h133l-63 -459q-18 -111 -33 -161h170q86 0 157.5 36.5t147.5 141t109.5 164t122.5 227.5q18 35 28 53l139 -4q-172 -336 -247 -444q-150 -214 -316 -228l-4 -6q113 -12 188.5 -109.5t106.5 -197.5t86 -334q14 -61 23 -94l-138 4q-80 342 -106 416 q-70 199 -197 246q-47 18 -108 18h-178q0 -72 -13 -162l-73 -520h-134z" />
<glyph unicode="&#x41b;" horiz-adv-x="1318" d="M-51 111q47 18 78.5 34.5t75.5 55.5t83 98q86 127 132.5 278.5t144.5 600.5q27 123 96.5 179t190.5 56h493l-199 -1413h-133l183 1303h-318q-84 0 -126 -35t-60 -125q-98 -440 -145.5 -598t-135.5 -297q-141 -227 -352 -250z" />
<glyph unicode="&#x41c;" horiz-adv-x="1779" d="M76 0l248 1356q12 57 63 57h158q47 0 53 -49l186 -924q6 -33 16.5 -97t16.5 -95h45q47 113 86 194l438 926q19 45 64 45h160q29 0 43 -17.5t12 -45.5l-131 -1350h-133l129 1300h-43l-524 -1110q-16 -43 -62 -43h-135q-51 0 -57 50l-220 1103h-45l-233 -1300h-135z" />
<glyph unicode="&#x41d;" horiz-adv-x="1357" d="M104 0l199 1413h135l-84 -600h711l84 600h135l-199 -1413h-135l99 696h-711l-98 -696h-136z" />
<glyph unicode="&#x41e;" horiz-adv-x="1359" d="M152 713q55 403 196.5 564t442.5 161q297 0 401 -167t47 -571q-55 -406 -196.5 -565.5t-438.5 -159.5t-402.5 166t-49.5 572zM289 700q-47 -342 21.5 -474t295.5 -132q229 0 337 134t157 485q51 346 -17 476t-297 130q-233 0 -339.5 -133t-157.5 -486z" />
<glyph unicode="&#x41f;" horiz-adv-x="1363" d="M104 0l199 1413h987l-198 -1413h-136l183 1303h-715l-184 -1303h-136z" />
<glyph unicode="&#x420;" horiz-adv-x="1198" d="M104 0l199 1413q174 16 469 17q242 0 330 -96.5t53 -340.5q-37 -254 -141.5 -341t-345.5 -87q-174 0 -346 17l-82 -582h-136zM334 682h332q178 2 253.5 67.5t102.5 254.5q25 182 -29.5 246.5t-222.5 64.5q-182 0 -346 -4z" />
<glyph unicode="&#x421;" horiz-adv-x="1153" d="M152 713q55 401 196 563t438 162q213 0 375 -39l-24 -101q-150 18 -351 19q-233 0 -339.5 -130t-157.5 -487q-47 -342 19.5 -473t289.5 -131q219 -2 395 23l11 -101q-166 -43 -406 -43q-299 0 -401.5 171t-44.5 567z" />
<glyph unicode="&#x422;" horiz-adv-x="1163" d="M141 1294l19 119h1073l-16 -119h-472l-182 -1294h-135l182 1294h-469z" />
<glyph unicode="&#x423;" horiz-adv-x="1130" d="M94 14l21 97q72 -8 112.5 -11.5t81.5 6t61.5 19.5t51.5 47t50.5 69.5t57.5 104.5l37 68h-78q-98 0 -116 92l-209 907h135l186 -852q8 -33 45 -33h95l440 885h143l-538 -1075q-55 -109 -95 -172.5t-106 -118.5t-141 -59q-115 -10 -234 26z" />
<glyph unicode="&#x424;" horiz-adv-x="1677" d="M141 729q45 319 210 451.5t526 142.5l28 207h135l-28 -209q352 -10 481 -146.5t84 -457.5q-45 -319 -209 -451.5t-526 -142.5l-29 -207h-133l27 207q-354 10 -482.5 147.5t-83.5 458.5zM276 717q-37 -268 60.5 -370.5t390.5 -108.5l137 970q-293 -10 -421 -116.5 t-167 -374.5zM854 238q291 10 420 116.5t168 374.5q37 266 -61.5 369.5t-389.5 109.5z" />
<glyph unicode="&#x425;" horiz-adv-x="1232" d="M-27 0l523 735l-295 678h139l264 -625h66l446 625h150l-486 -680l314 -733h-140l-284 684h-64l-477 -684h-156z" />
<glyph unicode="&#x426;" horiz-adv-x="1392" d="M106 0l199 1413h135l-184 -1302h700l185 1302h133l-182 -1302h170l-15 -111l-43 -309h-104l28 309h-1022z" />
<glyph unicode="&#x427;" horiz-adv-x="1259" d="M160 842l80 571h135l-76 -553q-16 -117 23.5 -165t152.5 -48q125 0 238.5 44t255.5 132l84 590h133l-199 -1413h-133l98 705q-266 -178 -520 -179q-160 0 -226.5 75t-45.5 241z" />
<glyph unicode="&#x428;" horiz-adv-x="1880" d="M104 0l199 1413h133l-184 -1302h555l182 1302h131l-182 -1302h553l184 1302h131l-198 -1413h-1504z" />
<glyph unicode="&#x429;" horiz-adv-x="1910" d="M106 0l199 1413h131l-182 -1302h545l184 1302h131l-182 -1302h545l184 1302h131l-182 -1302h170l-17 -111l-43 -309h-102l29 309h-1541z" />
<glyph unicode="&#x42a;" horiz-adv-x="1511" d="M137 1294l19 119h592l-82 -590h327q250 0 338 -96t55 -332q-33 -238 -139 -324.5t-344 -86.5q-313 0 -487 16l180 1294h-459zM563 104q80 -2 324 -2q186 0 262 62.5t102 243.5q25 172 -28.5 237.5t-237.5 65.5h-336z" />
<glyph unicode="&#x42b;" horiz-adv-x="1705" d="M104 0l199 1413h135l-82 -590h328q252 0 340 -96t55 -332q-33 -238 -139 -324.5t-344 -86.5q-315 0 -492 16zM254 104q80 -2 326 -2q186 0 262 62.5t102 243.5q25 172 -28.5 237.5t-237.5 65.5h-338zM1296 0l199 1413h135l-198 -1413h-136z" />
<glyph unicode="&#x42c;" horiz-adv-x="1204" d="M104 0l199 1413h135l-82 -590h328q252 0 340 -96t55 -332q-33 -238 -139 -324.5t-344 -86.5q-315 0 -492 16zM254 104q80 -2 326 -2q186 0 262 62.5t102 243.5q25 172 -28.5 237.5t-237.5 65.5h-338z" />
<glyph unicode="&#x42d;" horiz-adv-x="1169" d="M6 20l23 101q166 -31 370 -25q238 6 349.5 137.5t162.5 464.5h-626l14 105h627q18 125 8 215t-30.5 147.5t-72 91t-114 47t-156.5 13.5q-170 -1 -346 -21l-8 103q160 39 362 39q319 0 429 -164t53 -574q-53 -401 -198.5 -559.5t-455.5 -165.5q-219 -4 -391 45z" />
<glyph unicode="&#x42e;" horiz-adv-x="1867" d="M106 0l199 1413h135l-88 -622h344q61 360 196.5 503.5t405.5 143.5q295 0 401.5 -166t49.5 -572q-57 -408 -197.5 -566.5t-441.5 -158.5q-285 0 -383 158t-47 547h-344l-94 -680h-136zM815 700q-47 -342 16.5 -474t278.5 -132q231 0 341 136.5t159 482.5 q47 342 -20.5 474t-291.5 132q-221 0 -327.5 -136t-155.5 -483z" />
<glyph unicode="&#x42f;" horiz-adv-x="1243" d="M10 0l197 436q88 178 215 201l2 8q-127 27 -179 137.5t-28 272.5q31 203 142.5 289t328.5 86q322 0 481 -17l-198 -1413h-135l84 592q-49 -2 -169 -3t-176 -1q-82 0 -135 -39t-94 -127l-188 -422h-148zM354 1040q-57 -336 238 -335h342l86 606q-164 4 -330 4 q-154 0 -232.5 -61.5t-103.5 -213.5z" />
<glyph unicode="&#x430;" horiz-adv-x="1171" d="M121 504q25 164 60.5 264t99 155.5t141.5 75t201 19.5q186 0 432 -41l-140 -977h-100l19 223q-98 -113 -220 -180.5t-243 -67.5q-182 0 -237.5 120t-12.5 409zM243.5 175.5q28.5 -85.5 147.5 -85.5q201 0 443 246l79 563q-217 8 -254 8q-94 0 -152 -10t-103.5 -32.5 t-73 -74t-46 -118t-34.5 -178.5q-35 -233 -6.5 -318.5z" />
<glyph unicode="&#x431;" horiz-adv-x="1161" d="M130 329.5q1 73.5 7 135t19 153.5q20 150 41.5 245t55.5 185.5t82 145.5t119.5 100t172.5 74q23 6 182 40t272 85l17 -111q-82 -41 -151.5 -61.5t-151.5 -33.5t-127 -23q-172 -45 -244 -133.5t-115 -256.5q-23 -82 -37 -141h4q111 229 404 230q225 0 299 -118t41 -368 q-35 -258 -145.5 -380t-352.5 -122q-90 0 -158.5 17.5t-112.5 44t-70.5 75t-39 96.5t-11.5 121.5zM272 475q-31 -217 24.5 -302t229.5 -85q164 0 246 88t113 316q31 207 -19.5 282.5t-214.5 75.5q-195 0 -274.5 -91t-104.5 -284z" />
<glyph unicode="&#x432;" horiz-adv-x="1124" d="M96 314q2 83 19 196q25 166 63.5 266.5t104 153.5t142.5 70.5t202 17.5q94 0 158.5 -9.5t123 -34t80 -78.5t4.5 -136q-37 -188 -264 -217v-4q141 -8 195.5 -83t36.5 -216q-23 -150 -123.5 -207.5t-327.5 -57.5q-92 0 -156.5 8.5t-117 31t-82 60.5t-45 97t-13.5 142z M223 302q0 -56 11.5 -96t29 -63.5t53 -38t75.5 -18.5t102 -4q174 0 247.5 40t89.5 152q16 125 -45 177.5t-235 29.5l-318 -43q-10 -80 -10 -136zM246 535l309 40q166 20 231.5 62.5t81.5 122.5q18 92 -37 121.5t-219 29.5q-94 0 -146 -10t-99.5 -49t-74 -113.5t-46.5 -203.5 z" />
<glyph unicode="&#x433;" horiz-adv-x="1052" d="M61 229q12 100 73 162t185 111l302 106q96 33 139 74t51 102q12 82 -44 105.5t-208 17.5q-170 -8 -395 -57l-4 102q188 55 413 66q82 4 140.5 -1t119 -25.5t88 -72t17.5 -133.5q-8 -68 -38 -120t-80 -84.5t-78.5 -47t-79.5 -32.5l-314 -115q-76 -29 -111.5 -63.5 t-43.5 -94.5q-12 -86 42 -113.5t177 -27.5q236 2 473 80l6 -102q-213 -90 -479 -91q-182 0 -274.5 55.5t-76.5 198.5z" />
<glyph unicode="&#x434;" horiz-adv-x="1150" d="M119 457q59 459 461 458q203 0 311 -129q2 96 -12.5 174t-39 132.5t-68.5 97.5t-88 69.5t-109.5 47t-121 32t-133.5 21.5l21 94q86 -8 154.5 -22.5t142.5 -38t127 -57t105.5 -83t81 -113t52 -148.5t19.5 -189.5t-18 -233.5q-20 -141 -50 -239.5t-86.5 -183.5t-151.5 -128 t-229 -43q-225 0 -314 117t-54 365zM252 444q-27 -195 30.5 -276.5t209.5 -81.5q184 0 264 120t116 388q4 31 15 104q-106 106 -287 107q-164 0 -244 -92t-104 -269z" />
<glyph unicode="&#x435;" horiz-adv-x="1091" d="M109 514q41 295 157.5 399.5t374.5 104.5q215 0 302 -75t54 -238q-27 -133 -107.5 -190.5t-252.5 -74.5l-408 -39q-12 -184 55.5 -249.5t235.5 -65.5q148 0 365 27l10 -88q-141 -49 -399 -50q-250 0 -339 126t-48 413zM242 502l395 39q113 12 162 48t67 126 q27 121 -30.5 156.5t-204.5 35.5q-98 0 -157.5 -14t-108 -57t-76 -120t-47.5 -206v-8z" />
<glyph unicode="&#x436;" horiz-adv-x="1554" d="M-8 0q156 285 209 354q115 150 262 164v4q-55 8 -98 36t-70 61.5t-53.5 103.5t-41 119t-38.5 149h125q20 -80 31.5 -117.5t32 -98t40 -89.5t47 -61.5t63.5 -45t81 -12.5h147q-2 45 8 119l43 305h119l-45 -311q-10 -72 -25 -113h127q53 0 102.5 23.5t84.5 53.5t81 95.5 t73.5 111.5t80.5 140h131q-57 -106 -83.5 -152t-74.5 -120t-83 -105.5t-86.5 -60.5t-108.5 -35v-4q88 -10 146.5 -74.5t83 -131t73.5 -245.5q12 -41 19 -63h-125q-72 264 -103 328q-63 127 -184 137q-12 2 -25 2h-145q2 -49 -4 -111l-51 -356h-119l53 365q4 39 23 102h-146 q-127 -2 -207.5 -95t-216.5 -337q-12 -23 -18 -35h-135z" />
<glyph unicode="&#x437;" horiz-adv-x="1007" d="M0 10l18 101q203 -16 365 -17q182 0 247.5 35t80.5 147q14 106 -41.5 143.5t-220.5 39.5l-226 2l10 96h222q154 0 216 37t76.5 139.5t-42 133t-244.5 30.5q-178 0 -297 -14l-6 96q121 29 309 29q244 0 336 -56.5t71 -214.5q-16 -109 -69 -162t-172 -63l-4 -6 q129 -10 179 -74.5t32 -193.5q-20 -154 -116.5 -204t-334.5 -50q-221 0 -389 26z" />
<glyph unicode="&#x438;" horiz-adv-x="1157" d="M115 250l104 741h131l-102 -712q-14 -100 19.5 -145.5t123.5 -45.5q94 0 188.5 58.5t243.5 193.5l90 651h129l-139 -991h-100l20 231q-262 -256 -473 -256q-133 0 -193.5 72t-41.5 203z" />
<glyph unicode="&#x439;" horiz-adv-x="1157" d="M115 250l104 741h131l-102 -712q-14 -100 19.5 -145.5t123.5 -45.5q94 0 188.5 58.5t243.5 193.5l90 651h129l-139 -991h-100l20 231q-262 -256 -473 -256q-133 0 -193.5 72t-41.5 203zM393 1430h105q-31 -190 172 -191q190 1 215 191h102q-12 -119 -99 -193t-224 -74 q-143 0 -218 74t-53 193z" />
<glyph unicode="&#x43a;" horiz-adv-x="1075" d="M86 0l141 991h129l-43 -309q-12 -59 -26 -115h159q61 0 114.5 23.5t91.5 53.5t85 95.5t75 112.5t79 141l139 -2q-68 -125 -105.5 -189.5t-96 -137t-118 -105.5t-135.5 -41l-4 -4q141 -12 203 -113.5t131 -355.5q8 -31 13 -47l-132 4q-76 256 -106 317q-63 127 -186 144 q-20 2 -45 2h-177q0 -68 -6 -109l-51 -356h-129z" />
<glyph unicode="&#x43b;" horiz-adv-x="1132" d="M-31 98q145 41 203 150q74 135 176 534q29 111 87.5 160t166.5 49h416l-141 -991h-129l126 889h-245q-68 0 -105 -31t-55 -106q-86 -373 -184 -557q-88 -186 -303 -205z" />
<glyph unicode="&#x43c;" horiz-adv-x="1503" d="M63 0l177 942q8 49 57 49h141q39 0 49 -45l154 -608q27 -113 33 -148l37 3q45 96 69 143l330 616q18 39 55 39h144q55 0 49 -53l-86 -938h-121l82 891h-37l-395 -750q-20 -39 -56 -39h-118q-39 0 -49 45l-189 744h-39l-166 -891h-121z" />
<glyph unicode="&#x43d;" horiz-adv-x="1175" d="M86 0l141 991h127l-57 -411h577l58 411h129l-141 -991h-127l67 477h-577l-68 -477h-129z" />
<glyph unicode="&#x43e;" horiz-adv-x="1155" d="M109 502q39 283 155.5 399.5t364.5 116.5t338 -121t51 -408q-39 -283 -156 -398.5t-362 -115.5q-250 0 -340 120t-51 407zM242 489q-33 -231 23.5 -317t234.5 -86q182 0 267 90t118 326q33 231 -22.5 317t-233.5 86q-182 0 -267.5 -89t-119.5 -327z" />
<glyph unicode="&#x43f;" horiz-adv-x="1179" d="M86 0l141 991h103l-21 -225q287 252 492 252q131 0 192.5 -72t42.5 -205l-106 -741h-129l100 715q14 104 -17.5 147t-119.5 43q-94 0 -195.5 -56t-259.5 -181l-92 -668h-131z" />
<glyph unicode="&#x440;" horiz-adv-x="1171" d="M27 -428l200 1419h103l-21 -231q102 109 233.5 182.5t233.5 73.5q180 0 234.5 -118t13.5 -411q-25 -162 -61.5 -263t-99 -155.5t-138.5 -74t-197 -19.5q-152 0 -319 23q-2 -96 -16 -191l-37 -235h-129zM231 90q164 -6 254 -6q117 0 181.5 13.5t112.5 61.5t70.5 123.5 t43.5 215.5q35 233 6 318t-147 85q-84 0 -205 -65.5t-238 -180.5z" />
<glyph unicode="&#x441;" horiz-adv-x="989" d="M109 502q39 285 157.5 400.5t370.5 115.5q182 0 303 -45l-22 -84q-109 16 -261 16q-201 0 -292 -86t-123 -327q-31 -240 30.5 -322t255.5 -82q172 0 295 23l11 -91q-147 -45 -326 -45q-258 0 -349 121t-50 406z" />
<glyph unicode="&#x442;" horiz-adv-x="1794" d="M86 0l141 991h99l-19 -223q260 250 445 250q121 0 181 -62.5t54 -175.5q248 238 430 238q131 0 190.5 -73t41.5 -204l-105 -741h-129l101 715q14 102 -21 146t-123 44q-82 0 -168 -53t-231 -186l-94 -666h-125l100 715q14 100 -19.5 145t-125.5 45q-82 0 -167 -53 t-233 -184l-94 -668h-129z" />
<glyph unicode="&#x443;" horiz-adv-x="1085" d="M-10 -424l14 107q82 -12 151.5 2t163 92t185.5 223h-98q-41 0 -71 23.5t-38 62.5l-197 905h138l170 -844q10 -43 51 -43h106l41 76q104 195 190 423t117 388h134q-37 -166 -126.5 -402.5t-195.5 -443.5q-102 -201 -203.5 -329.5t-188.5 -178t-176 -65.5t-167 4z" />
<glyph unicode="&#x444;" horiz-adv-x="1449" d="M104 502q39 270 179.5 388t439.5 126l59 418h121l-57 -418q291 -12 399.5 -134t69.5 -393q-37 -268 -177.5 -386.5t-439.5 -127.5l-55 -393h-121l53 395q-293 10 -400 132t-71 393zM231 489q-31 -219 50.5 -307t314.5 -94l115 817q-233 -10 -341 -102t-139 -314zM711 88 q233 10 340.5 102.5t136.5 311.5q31 219 -49.5 307t-313.5 96z" />
<glyph unicode="&#x445;" horiz-adv-x="1058" d="M-31 0l422 516l-254 475h133l219 -422h60l344 422h143l-389 -477l275 -514h-134l-243 465h-53l-373 -465h-150z" />
<glyph unicode="&#x446;" horiz-adv-x="1202" d="M115 250l104 741h131l-102 -712q-14 -100 19.5 -145.5t123.5 -45.5q94 0 189.5 55.5t240.5 182.5l92 665h129l-114 -825q-8 -66 55 -66h82l-12 -100l-45 -305h-113l61 305h-4q-70 0 -108.5 42t-30.5 124l4 47q-256 -238 -467 -238q-133 0 -193.5 72t-41.5 203z" />
<glyph unicode="&#x447;" horiz-adv-x="1083" d="M113 573l59 418h129l-53 -383q-10 -82 19.5 -112.5t119.5 -30.5q168 0 395 127l56 399h131l-140 -991h-131l68 477q-229 -121 -420 -121q-264 -4 -233 217z" />
<glyph unicode="&#x448;" horiz-adv-x="1757" d="M115 250l104 741h129l-100 -712q-14 -98 19.5 -141.5t117.5 -43.5t163 49.5t226 182.5l94 665h125l-100 -712q-14 -96 18.5 -140.5t118.5 -44.5t166 50.5t225 179.5l92 667h129l-139 -991h-100l18 219q-242 -244 -438 -244q-113 0 -171 60.5t-52 171.5 q-233 -231 -424 -232q-125 0 -182.5 72t-38.5 203z" />
<glyph unicode="&#x449;" horiz-adv-x="1802" d="M115 250l104 741h129l-100 -712q-14 -98 19.5 -141.5t117.5 -43.5t163 49.5t226 182.5l94 665h125l-100 -712q-14 -96 18.5 -140.5t118.5 -44.5t166 50.5t225 179.5l92 667h129l-114 -825q-10 -66 53 -66h84l-14 -100l-45 -305h-113l66 305h-7q-70 0 -109.5 42t-31.5 124 l6 49q-240 -240 -434 -240q-113 0 -171 60.5t-52 171.5q-233 -231 -424 -232q-125 0 -182.5 72t-38.5 203z" />
<glyph unicode="&#x44a;" horiz-adv-x="1280" d="M88 887l14 104h582l-121 -440q109 43 228 43q225 0 299.5 -68.5t50.5 -244.5q-25 -174 -115 -236.5t-285 -62.5q-86 0 -149.5 10t-131 40.5t-92 100.5t2.5 176l161 578h-444zM492 183.5q14 -42.5 53 -63t80 -27.5t94 -7q150 0 210 43t81 170q16 115 -29 156t-195 41 q-134 0 -249 -45l-45 -162q-14 -63 0 -105.5z" />
<glyph unicode="&#x44b;" horiz-adv-x="1427" d="M113 250l108 741h127l-67 -454q129 57 266 57q223 0 299 -68.5t53 -244.5q-25 -172 -113 -235.5t-286 -63.5q-66 0 -111 3t-106.5 18t-97 42t-58.5 79t-14 126zM240 248q-8 -51 8 -86t55 -50.5t79 -20.5t95 -5q150 0 211.5 44t79.5 169q16 115 -30 156t-197 41 q-146 -1 -273 -54zM1040 0l142 991h131l-142 -991h-131z" />
<glyph unicode="&#x44c;" horiz-adv-x="1036" d="M113 250l108 741h127l-67 -454q129 57 266 57q223 0 299 -68.5t53 -244.5q-25 -172 -113 -235.5t-286 -63.5q-66 0 -111 3t-106.5 18t-97 42t-58.5 79t-14 126zM240 248q-8 -51 8 -86t55 -50.5t79 -20.5t95 -5q150 0 211.5 44t79.5 169q16 115 -30 156t-197 41 q-146 -1 -273 -54z" />
<glyph unicode="&#x44d;" horiz-adv-x="1015" d="M8 16l21 93q129 -14 288 -15q207 -4 298.5 72t123.5 293h-512l15 96h510q18 203 -47.5 270.5t-258.5 67.5q-145 0 -290 -14l-9 94q121 31 304 31q270 0 366 -114t57 -405q-37 -287 -157.5 -397.5t-386.5 -105.5q-188 0 -322 34z" />
<glyph unicode="&#x44e;" horiz-adv-x="1603" d="M88 0l139 991h129l-59 -428h278q43 256 156 355.5t342 99.5q252 0 343 -116t50 -410q-41 -287 -156.5 -397.5t-367.5 -110.5q-240 0 -327 104.5t-54 372.5h-280l-64 -461h-129zM690 494q-33 -229 20.5 -314.5t227.5 -85.5q188 0 274 91t119 320.5t-25.5 314.5t-236.5 85 q-180 0 -263 -88t-116 -323z" />
<glyph unicode="&#x44f;" horiz-adv-x="1089" d="M18 0l105 289q27 72 86 104.5t123 34.5l2 6q-106 16 -148.5 97t-27.5 186q20 174 120.5 229t337.5 55q181 0 359 -14l-139 -987h-127l53 381h-287q-186 0 -227 -115l-96 -266h-134zM283 698q-14 -102 25.5 -160.5t164.5 -58.5h303l58 412q-74 2 -263 2q-156 0 -215 -37 t-73 -158z" />
<glyph unicode="&#x451;" horiz-adv-x="1091" d="M109 514q41 295 157.5 399.5t374.5 104.5q215 0 302 -75t54 -238q-27 -133 -107.5 -190.5t-252.5 -74.5l-408 -39q-12 -184 55.5 -249.5t235.5 -65.5q148 0 365 27l10 -88q-141 -49 -399 -50q-250 0 -339 126t-48 413zM242 502l395 39q113 12 162 48t67 126 q27 121 -30.5 156.5t-204.5 35.5q-98 0 -157.5 -14t-108 -57t-76 -120t-47.5 -206v-8zM426 1247l16 113q6 41 47 41h39q43 0 37 -41l-18 -111q-2 -41 -43 -41h-43q-41 0 -35 39zM778 1247l17 113q6 41 45 41h41q43 0 37 -41l-19 -111q-2 -41 -43 -41h-43q-41 0 -35 39z" />
<glyph unicode="&#x452;" horiz-adv-x="1169" d="M115 1028l12 78h152l47 328h129l-45 -328h411l-12 -78h-410l-37 -260q-12 -90 -32 -172q268 221 475 221q276 0 239 -276l-77 -541h-129l73 514q12 100 -24.5 142t-134.5 42q-92 0 -188.5 -49t-241.5 -160l-68 -489h-131l145 1028h-153z" />
<glyph unicode="&#x453;" horiz-adv-x="1052" d="M61 229q12 100 73 162t185 111l302 106q96 33 139 74t51 102q12 82 -44 105.5t-208 17.5q-170 -8 -395 -57l-4 102q188 55 413 66q82 4 140.5 -1t119 -25.5t88 -72t17.5 -133.5q-8 -68 -38 -120t-80 -84.5t-78.5 -47t-79.5 -32.5l-314 -115q-76 -29 -111.5 -63.5 t-43.5 -94.5q-12 -86 42 -113.5t177 -27.5q236 2 473 80l6 -102q-213 -90 -479 -91q-182 0 -274.5 55.5t-76.5 198.5zM444 1190l377 299l68 -100l-400 -263z" />
<glyph unicode="&#x454;" horiz-adv-x="1011" d="M109 498q39 287 160.5 396.5t383.5 109.5q189 0 310 -33l-21 -92q-135 14 -285 14q-197 0 -283.5 -69.5t-123.5 -270.5h512l-12 -94h-514q-27 -215 37.5 -288t267.5 -77q141 -2 301 15l10 -93q-143 -35 -334 -34q-252 0 -350 116.5t-59 399.5z" />
<glyph unicode="&#x455;" horiz-adv-x="1034" d="M53 4l17 96q127 -14 329 -14q197 4 266.5 30.5t82.5 112.5q8 47 -9.5 79t-41.5 45t-83 38l-295 123q-109 47 -154.5 105.5t-31.5 168.5q20 141 114.5 187.5t295.5 42.5q213 -4 405 -31l-16 -92q-186 10 -385 12q-160 2 -217.5 -19.5t-69.5 -109.5q-10 -70 18.5 -101.5 t106.5 -64.5l297 -123q119 -49 164 -105t31 -167q-8 -66 -35 -111t-60.5 -70.5t-93 -38.5t-117 -17.5t-147.5 -4.5q-141 0 -371 29z" />
<glyph unicode="&#x456;" horiz-adv-x="487" d="M96 0l140 991h129l-140 -991h-129zM262 1249l19 121q2 39 43 39h61q45 0 39 -45l-16 -121q-6 -39 -46 -39h-59q-47 0 -41 45z" />
<glyph unicode="&#x457;" horiz-adv-x="483" d="M92 0l141 991h129l-139 -991h-131zM96 1247l17 113q6 41 45 41h41q43 0 37 -41l-19 -111q-2 -41 -43 -41h-43q-41 0 -35 39zM446 1247l19 113q6 41 45 41h41q43 0 37 -41l-19 -111q-2 -41 -43 -41h-43q-39 0 -37 39z" />
<glyph unicode="&#x458;" horiz-adv-x="487" d="M-72 -362q135 145 160 317l148 1036h129l-148 -1044q-31 -219 -219 -369zM262 1249l19 121q2 39 43 39h61q45 0 39 -45l-16 -121q-6 -39 -46 -39h-59q-47 0 -41 45z" />
<glyph unicode="&#x459;" horiz-adv-x="1613" d="M-29 102q106 29 185 127q63 84 95 181.5t103 392.5q43 188 221 188h375l-67 -459q121 61 274 62q203 0 271.5 -71.5t46.5 -241.5q-25 -176 -108 -236.5t-275 -62.5q-86 0 -148.5 9t-121 35.5t-84 83t-15.5 140.5l94 643h-205q-117 0 -143 -125q-66 -276 -100.5 -384 t-100.5 -202q-102 -162 -286 -186zM842 248q-14 -96 47 -129t176 -33q145 0 204.5 43t76.5 170q14 115 -28 156t-177 41q-150 -1 -271 -56z" />
<glyph unicode="&#x45a;" horiz-adv-x="1640" d="M86 0l141 991h121l-55 -395h508l57 395h123l-66 -454q121 57 252 57q213 0 285 -68.5t49 -244.5q-23 -172 -106.5 -235.5t-274.5 -63.5q-61 0 -105 3t-102.5 18t-93.5 42t-56.5 79t-12.5 126l36 250h-507l-72 -500h-121zM872 248q-6 -43 4.5 -73t30 -47t53 -26.5 t64.5 -12.5t74 -3q141 0 199.5 44t74.5 169q14 115 -27.5 156t-183.5 41q-137 -1 -260 -54z" />
<glyph unicode="&#x45b;" horiz-adv-x="1169" d="M115 1028l12 78h152l47 328h129l-45 -328h411l-12 -78h-412l-32 -237q-16 -117 -37 -195q272 221 477 221q276 0 239 -276l-81 -594q-33 -223 -222 -369l-67 60q135 150 160 317l77 559q14 98 -23.5 141t-135.5 43q-92 0 -188.5 -48t-244.5 -161l-65 -489h-131l145 1028 h-153z" />
<glyph unicode="&#x45c;" horiz-adv-x="1075" d="M86 0l141 991h129l-43 -309q-12 -59 -26 -115h159q61 0 114.5 23.5t91.5 53.5t85 95.5t75 112.5t79 141l139 -2q-68 -125 -105.5 -189.5t-96 -137t-118 -105.5t-135.5 -41l-4 -4q141 -12 203 -113.5t131 -355.5q8 -31 13 -47l-132 4q-76 256 -106 317q-63 127 -186 144 q-20 2 -45 2h-177q0 -68 -6 -109l-51 -356h-129zM518 1190l375 299l68 -100l-398 -263z" />
<glyph unicode="&#x45d;" horiz-adv-x="1157" d="M115 250l104 741h131l-102 -712q-14 -100 19.5 -145.5t123.5 -45.5q94 0 188.5 58.5t243.5 193.5l90 651h129l-139 -991h-100l20 231q-262 -256 -473 -256q-133 0 -193.5 72t-41.5 203zM358 1395l76 92l318 -301l-52 -60z" />
<glyph unicode="&#x45e;" horiz-adv-x="1085" d="M-10 -424l14 107q82 -12 151.5 2t163 92t185.5 223h-98q-41 0 -71 23.5t-38 62.5l-197 905h138l170 -844q10 -43 51 -43h106l41 76q104 195 190 423t117 388h134q-37 -166 -126.5 -402.5t-195.5 -443.5q-102 -201 -203.5 -329.5t-188.5 -178t-176 -65.5t-167 4zM328 1430 h104q-31 -190 172 -191q190 1 215 191h103q-10 -119 -98.5 -193t-225.5 -74q-141 0 -216 74t-54 193z" />
<glyph unicode="&#x45f;" horiz-adv-x="1157" d="M115 250l104 741h131l-102 -712q-14 -100 19.5 -145.5t123.5 -45.5q94 0 188.5 58.5t243.5 193.5l90 651h129l-139 -991h-100l20 231q-262 -256 -473 -256q-133 0 -193.5 72t-41.5 203zM426 -446l63 364h86l-36 -364h-113z" />
<glyph unicode="&#x490;" horiz-adv-x="1060" d="M100 0l164 1171q18 121 89 182.5t179 61.5q332 0 490 -12l63 319h93l-54 -329l-16 -93h-539q-78 0 -119.5 -34.5t-54.5 -122.5l-159 -1143h-136z" />
<glyph unicode="&#x491;" horiz-adv-x="913" d="M82 0l111 791q29 205 231 204q260 0 389 -6l59 301h91l-48 -307l-14 -94h-432q-70 0 -106.5 -31t-47.5 -106l-104 -752h-129z" />
<glyph unicode="&#x4b0;" horiz-adv-x="1165" d="M158 1413h139l235 -631q25 -74 46 -151l16 4q70 125 88 153l412 625h145l-567 -858h289l-15 -86h-313l-66 -469h-135l66 469h-318l13 86h294z" />
<glyph unicode="&#x4b1;" horiz-adv-x="1173" d="M98 991h138l235 -629q35 -104 47 -153h14q31 70 89 158l411 624h148l-568 -854h291l-12 -86h-318l-67 -473h-135l67 473h-315l12 86h291z" />
<glyph unicode="&#x4b6;" horiz-adv-x="1316" d="M160 842l82 571h133l-76 -553q-16 -115 26 -165t162 -50q119 0 230.5 42t263.5 134l82 592h135l-186 -1317h174l-12 -96l-46 -309h-102l29 309h-191l99 700q-272 -174 -529 -174q-317 0 -274 316z" />
<glyph unicode="&#x4b7;" horiz-adv-x="1124" d="M113 573l59 418h129l-53 -383q-10 -82 19.5 -112.5t119.5 -30.5q170 0 395 129l58 397h129l-127 -885h127l-13 -96l-43 -303h-114l51 293h-152l68 477q-229 -121 -420 -121q-264 -4 -233 217z" />
<glyph unicode="&#x4ba;" horiz-adv-x="1271" d="M104 0l199 1413h135l-98 -700q283 174 528 174q322 0 273 -316l-80 -571h-135l80 553q16 117 -27 166t-162 49q-117 0 -228.5 -41t-264.5 -135l-84 -592h-136z" />
<glyph unicode="&#x4c0;" horiz-adv-x="514" d="M106 0l199 1413h135l-198 -1413h-136z" />
<glyph unicode="&#x2000;" horiz-adv-x="930" />
<glyph unicode="&#x2001;" horiz-adv-x="1860" />
<glyph unicode="&#x2002;" horiz-adv-x="930" />
<glyph unicode="&#x2003;" horiz-adv-x="1860" />
<glyph unicode="&#x2004;" horiz-adv-x="620" />
<glyph unicode="&#x2005;" horiz-adv-x="465" />
<glyph unicode="&#x2006;" horiz-adv-x="310" />
<glyph unicode="&#x2007;" horiz-adv-x="310" />
<glyph unicode="&#x2008;" horiz-adv-x="232" />
<glyph unicode="&#x2009;" horiz-adv-x="372" />
<glyph unicode="&#x200a;" horiz-adv-x="103" />
<glyph unicode="&#x2010;" d="M137 465l15 102h628l-14 -102h-629z" />
<glyph unicode="&#x2011;" d="M137 465l15 102h628l-14 -102h-629z" />
<glyph unicode="&#x2012;" d="M137 465l15 102h628l-14 -102h-629z" />
<glyph unicode="&#x2013;" horiz-adv-x="1232" d="M137 465l15 102h919l-14 -102h-920z" />
<glyph unicode="&#x2014;" horiz-adv-x="1859" d="M137 465l15 102h1546l-15 -102h-1546z" />
<glyph unicode="&#x2018;" horiz-adv-x="428" d="M211 1079l18 129q14 119 99 281l63 -23q-39 -121 -59 -229q20 2 30.5 -10.5t8.5 -30.5l-19 -119q-4 -27 -16 -37t-43 -10h-41q-49 0 -41 49z" />
<glyph unicode="&#x2019;" horiz-adv-x="423" d="M217 1034q45 143 59 232q-20 -2 -30 9t-6 32l18 118q4 27 15 36t42 9h43q47 0 41 -49l-18 -127q-18 -127 -98 -280z" />
<glyph unicode="&#x201a;" horiz-adv-x="450" d="M51 -227q45 135 62 229q-18 -2 -29.5 10.5t-9.5 30.5l18 119q6 29 18.5 38t43.5 9h43q49 0 41 -49l-19 -129q-16 -121 -100 -281z" />
<glyph unicode="&#x201c;" horiz-adv-x="712" d="M211 1079l18 129q14 119 99 281l63 -23q-39 -121 -59 -229q20 2 30.5 -10.5t8.5 -30.5l-19 -119q-4 -27 -16 -37t-43 -10h-41q-49 0 -41 49zM496 1079l18 129q14 119 98 281l64 -23q-39 -121 -60 -229q18 2 29.5 -10.5t9.5 -30.5l-18 -119q-6 -27 -18 -37t-41 -10h-43 q-47 0 -39 49z" />
<glyph unicode="&#x201d;" horiz-adv-x="708" d="M217 1034q45 143 59 232q-20 -2 -30 9t-6 32l18 118q4 27 15 36t42 9h43q47 0 41 -49l-18 -127q-18 -127 -98 -280zM502 1034q43 143 59 232q-20 -2 -30.5 9t-6.5 32l17 118q6 27 17 36t42 9h43q47 0 41 -49l-18 -127q-18 -127 -99 -280z" />
<glyph unicode="&#x201e;" horiz-adv-x="731" d="M51 -229q45 143 60 229q-43 0 -37 43l18 119q4 27 16.5 36t43.5 9h41q49 0 40 -49l-18 -127q-18 -127 -98 -281zM336 -229q45 143 59 229q-43 0 -37 43l19 119q4 27 15 36t42 9h43q49 0 41 -49l-18 -127q-18 -127 -99 -281z" />
<glyph unicode="&#x2026;" horiz-adv-x="1671" d="M98 53l17 117q6 49 55 49h45q55 0 45 -53l-16 -119q-6 -47 -54 -47h-45q-53 0 -47 53zM711 53l16 117q6 49 55 49h45q55 0 45 -53l-16 -119q-6 -47 -53 -47h-45q-57 0 -47 53zM1323 53l16 117q7 49 56 49h45q51 0 45 -53l-17 -119q-6 -47 -53 -47h-45q-57 0 -47 53z" />
<glyph unicode="&#x202f;" horiz-adv-x="372" />
<glyph unicode="&#x2039;" horiz-adv-x="604" d="M80 504l4 33l385 399l55 -49l-329 -375l231 -381l-66 -45z" />
<glyph unicode="&#x203a;" horiz-adv-x="604" d="M55 135l332 377l-231 381l65 43l279 -416l-2 -33l-389 -401z" />
<glyph unicode="&#x205f;" horiz-adv-x="465" />
<glyph unicode="&#x20ac;" horiz-adv-x="1304" d="M106 545l13 86h180l10 82q6 47 17 106h-179l13 86h184q66 276 212 404.5t415 128.5q178 0 315 -39l-24 -103q-135 25 -295 21q-197 -4 -310.5 -97.5t-171.5 -314.5h549l-28 -86h-541q0 -6 -8 -51t-13 -70l-8 -67h490l-29 -86h-467q-12 -240 70 -342.5t276 -106.5 q184 -4 334 25l10 -103q-147 -43 -340 -43q-274 0 -389 139.5t-100 430.5h-185z" />
<glyph unicode="&#x2122;" horiz-adv-x="1947" d="M240 1343l10 82h653l-10 -82h-279l-98 -696h-96l96 696h-276zM903 647l137 742q6 37 39 36h105q35 0 39 -34l112 -486q4 -16 10.5 -53t10.5 -55h28q20 55 50 110l245 490q14 28 41 28h109q18 0 28.5 -12t8.5 -31l-70 -735h-90l63 703h-24l-295 -588q-12 -29 -43 -29h-82 q-35 0 -39 35l-137 582h-25l-129 -703h-92z" />
<glyph unicode="&#x25fc;" horiz-adv-x="993" d="M0 0v993h993v-993h-993z" />
</font>
</defs>
</svg>
